ffmpeg version 2.1.1 Copyright (c) 2000-2013 the FFmpeg developers
  built on Dec 20 2014 10:34:55 with gcc 4.7 (Debian 4.7.2-5)
  configuration: --enable-gpl --enable-nonfree --enable-postproc --enable-pthreads --enable-x11grab --enable-swscale --enable-version3 --enable-shared --disable-yasm --enable-filter=movie --enable-frei0r --enable-libdc1394 --enable-libfaac --enable-libmp3lame --enable-libx264 --enable-libxvid --enable-libfreetype --enable-libvorbis --enable-libgsm --enable-libopencore-amrnb --enable-libopencore-amrwb --enable-libopenjpeg --enable-librtmp --enable-libschroedinger --enable-libspeex --enable-libtheora --enable-libvpx --enable-libvo-amrwbenc --enable-libvo-aacenc --enable-libaacplus --enable-libxavs --enable-bzlib --enable-openssl --enable-gnutls --enable-openal --enable-libv4l2 --enable-libpulse --enable-libmodplug --enable-libass --enable-libcdio --enable-vdpau --enable-libbluray
  libavutil      52. 48.101 / 52. 48.101
  libavcodec     55. 39.101 / 55. 39.101
  libavformat    55. 19.104 / 55. 19.104
  libavdevice    55.  5.100 / 55.  5.100
  libavfilter     3. 90.100 /  3. 90.100
  libswscale      2.  5.101 /  2.  5.101
  libswresample   0. 17.104 /  0. 17.104
  libpostproc    52.  3.100 / 52.  3.100
Input #0, matroska,webm, from '/var/www/business-supermarket.co.uk/web/www/temp/0942135001426755705.webm':
  Metadata:
    creation_time   : 2015-02-19 13:19:52
  Duration: 00:03:28.49, start: 0.000000, bitrate: 293 kb/s
    Stream #0:0(eng): Video: vp8, yuv420p, 1366x768, SAR 1:1 DAR 683:384, 1k tbr, 1k tbn, 1k tbc (default)
    Metadata:
      title           : Video
Please use -b:a or -b:v, -b is ambiguous
Codec AVOption ab (set bitrate (in bits/s)) specified for output file #0 (/var/www/business-supermarket.co.uk/web/www/upload/users/anandgal_947/videos/0942135001426755705.flv) has not been used for any stream. The most likely reason is either wrong type (e.g. a video option with no video streams) or that it is a private option of some encoder which was not actually used for any stream.
Output #0, flv, to '/var/www/business-supermarket.co.uk/web/www/upload/users/anandgal_947/videos/0942135001426755705.flv':
  Metadata:
    encoder         : Lavf55.19.104
    Stream #0:0(eng): Video: flv1 (flv) ([2][0][0][0] / 0x0002), yuv420p, 512x384 [SAR 683:512 DAR 683:384], q=2-31, 1000 kb/s, 1k tbn, 30 tbc (default)
    Metadata:
      title           : Video
Stream mapping:
  Stream #0:0 -> #0:0 (vp8 -> flv)
Press [q] to stop, [?] for help
frame=   35 fps=0.0 q=2.0 size=     328kB time=00:00:04.53 bitrate= 592.1kbits/s    frame=   71 fps= 70 q=2.0 size=     760kB time=00:00:07.30 bitrate= 853.3kbits/s    frame=  114 fps= 75 q=2.0 size=    1166kB time=00:00:10.20 bitrate= 936.2kbits/s    frame=  153 fps= 75 q=2.0 size=    1414kB time=00:00:16.30 bitrate= 710.9kbits/s    frame=  194 fps= 76 q=2.0 size=    1708kB time=00:00:20.93 bitrate= 668.6kbits/s    frame=  236 fps= 77 q=2.0 size=    1900kB time=00:00:25.20 bitrate= 617.5kbits/s    frame=  248 fps= 70 q=2.0 size=    1963kB time=00:00:26.06 bitrate= 616.9kbits/s    frame=  267 fps= 66 q=2.0 size=    2089kB time=00:00:27.46 bitrate= 623.1kbits/s    frame=  302 fps= 66 q=2.0 size=    2464kB time=00:00:28.96 bitrate= 696.9kbits/s    frame=  339 fps= 67 q=2.0 size=    2949kB time=00:00:30.83 bitrate= 783.5kbits/s    frame=  377 fps= 67 q=2.0 size=    3280kB time=00:00:33.46 bitrate= 802.9kbits/s    frame=  416 fps= 68 q=2.0 size=    3577kB time=00:00:35.43 bitrate= 826.9kbits/s    frame=  456 fps= 69 q=2.0 size=    3804kB time=00:00:39.93 bitrate= 780.3kbits/s    frame=  497 fps= 70 q=2.0 size=    4204kB time=00:00:46.50 bitrate= 740.7kbits/s    frame=  534 fps= 70 q=2.0 size=    4465kB time=00:00:50.23 bitrate= 728.2kbits/s    frame=  570 fps= 70 q=2.0 size=    4702kB time=00:00:54.76 bitrate= 703.3kbits/s    frame=  606 fps= 70 q=2.0 size=    4944kB time=00:01:01.36 bitrate= 660.0kbits/s    frame=  648 fps= 71 q=2.0 size=    5190kB time=00:01:06.80 bitrate= 636.5kbits/s    frame=  688 fps= 71 q=2.0 size=    5508kB time=00:01:13.26 bitrate= 615.9kbits/s    frame=  717 fps= 71 q=2.0 size=    5676kB time=00:01:14.90 bitrate= 620.8kbits/s    frame=  758 fps= 71 q=2.0 size=    5984kB time=00:01:20.63 bitrate= 607.9kbits/s    frame=  795 fps= 71 q=2.0 size=    6110kB time=00:01:23.50 bitrate= 599.5kbits/s    frame=  833 fps= 71 q=2.0 size=    6223kB time=00:01:25.16 bitrate= 598.6kbits/s    frame=  872 fps= 72 q=2.0 size=    6320kB time=00:01:26.73 bitrate= 596.9kbits/s    frame=  912 fps= 72 q=2.0 size=    6437kB time=00:01:28.26 bitrate= 597.5kbits/s    frame=  948 fps= 72 q=2.0 size=    6679kB time=00:01:29.46 bitrate= 611.6kbits/s    frame=  988 fps= 72 q=2.0 size=    6912kB time=00:01:30.93 bitrate= 622.7kbits/s    frame= 1026 fps= 72 q=2.0 size=    7222kB time=00:01:35.83 bitrate= 617.4kbits/s    frame= 1067 fps= 73 q=2.0 size=    7467kB time=00:01:41.53 bitrate= 602.4kbits/s    frame= 1105 fps= 73 q=1.6 size=    7788kB time=00:01:44.80 bitrate= 608.7kbits/s    frame= 1145 fps= 73 q=2.0 size=    8025kB time=00:01:50.00 bitrate= 597.7kbits/s    frame= 1175 fps= 72 q=2.0 size=    8112kB time=00:01:52.60 bitrate= 590.2kbits/s    frame= 1208 fps= 72 q=2.0 size=    8248kB time=00:01:54.23 bitrate= 591.5kbits/s    frame= 1246 fps= 72 q=2.0 size=    8346kB time=00:01:55.70 bitrate= 590.9kbits/s    frame= 1282 fps= 72 q=2.0 size=    8461kB time=00:01:57.13 bitrate= 591.7kbits/s    frame= 1320 fps= 72 q=2.0 size=    8584kB time=00:01:58.40 bitrate= 593.9kbits/s    frame= 1353 fps= 72 q=2.0 size=    8710kB time=00:01:59.50 bitrate= 597.1kbits/s    frame= 1391 fps= 72 q=2.0 size=    8993kB time=00:02:02.50 bitrate= 601.4kbits/s    frame= 1427 fps= 72 q=2.0 size=    9234kB time=00:02:04.13 bitrate= 609.4kbits/s    frame= 1462 fps= 72 q=2.0 size=    9477kB time=00:02:06.53 bitrate= 613.5kbits/s    frame= 1496 fps= 72 q=2.0 size=    9719kB time=00:02:09.06 bitrate= 616.9kbits/s    frame= 1524 fps= 72 q=2.0 size=    9885kB time=00:02:11.56 bitrate= 615.5kbits/s    frame= 1561 fps= 72 q=1.6 size=   10203kB time=00:02:18.03 bitrate= 605.5kbits/s    frame= 1601 fps= 72 q=2.0 size=   10447kB time=00:02:23.66 bitrate= 595.7kbits/s    frame= 1635 fps= 72 q=2.0 size=   10688kB time=00:02:29.63 bitrate= 585.1kbits/s    frame= 1676 fps= 72 q=2.0 size=   10926kB time=00:02:32.86 bitrate= 585.5kbits/s    frame= 1719 fps= 72 q=2.0 size=   11252kB time=00:02:35.53 bitrate= 592.6kbits/s    frame= 1762 fps= 72 q=2.0 size=   11473kB time=00:02:40.16 bitrate= 586.8kbits/s    frame= 1805 fps= 73 q=2.0 size=   11634kB time=00:02:42.36 bitrate= 587.0kbits/s    frame= 1849 fps= 73 q=1.6 size=   11758kB time=00:02:44.16 bitrate= 586.7kbits/s    frame= 1855 fps= 72 q=2.0 size=   11763kB time=00:02:44.40 bitrate= 586.1kbits/s    frame= 1897 fps= 72 q=1.6 size=   11933kB time=00:02:45.93 bitrate= 589.1kbits/s    frame= 1940 fps= 72 q=2.0 size=   12058kB time=00:02:47.36 bitrate= 590.2kbits/s    frame= 1982 fps= 72 q=2.0 size=   12422kB time=00:02:50.80 bitrate= 595.8kbits/s    frame= 2026 fps= 73 q=2.0 size=   12664kB time=00:02:55.96 bitrate= 589.6kbits/s    frame= 2073 fps= 73 q=2.0 size=   12987kB time=00:03:02.00 bitrate= 584.6kbits/s    frame= 2119 fps= 73 q=2.0 size=   13308kB time=00:03:07.86 bitrate= 580.3kbits/s    frame= 2161 fps= 74 q=1.6 size=   13636kB time=00:03:12.63 bitrate= 579.9kbits/s    frame= 2205 fps= 74 q=2.0 size=   13916kB time=00:03:14.10 bitrate= 587.3kbits/s    frame= 2247 fps= 74 q=2.0 size=   14278kB time=00:03:16.10 bitrate= 596.4kbits/s    frame= 2289 fps= 74 q=2.0 size=   14482kB time=00:03:19.36 bitrate= 595.1kbits/s    frame= 2334 fps= 74 q=2.0 size=   14715kB time=00:03:20.86 bitrate= 600.1kbits/s    frame= 2378 fps= 74 q=2.0 size=   14947kB time=00:03:22.33 bitrate= 605.2kbits/s    frame= 2421 fps= 75 q=2.0 size=   15230kB time=00:03:23.76 bitrate= 612.3kbits/s    frame= 2463 fps= 75 q=2.0 size=   15613kB time=00:03:27.00 bitrate= 617.9kbits/s    frame= 2469 fps= 75 q=2.0 Lsize=   15615kB time=00:03:28.36 bitrate= 613.9kbits/s    
video:15576kB audio:0kB subtitle:0 global headers:0kB muxing overhead 0.249003%
